<?xml version="1.0" encoding="UTF-8"?>
<svg width="60px" height="60px" viewBox="0 0 60 60" version="1.1" xmlns="http://www.w3.org/2000/svg" xmlns:xlink="http://www.w3.org/1999/xlink">
    <title>icon_iphone</title>
    <g id="icon_iphone" stroke="none" stroke-width="1" fill="none" fill-rule="evenodd">
        <path d="M37.136231,49.7026373 C40.2075204,49.7026373 42.2490244,47.697266 42.2490244,44.7163087 L42.2490244,15.1596657 C42.2490244,12.1787084 40.2075204,10.1733372 37.136231,10.1733372 L22.9360346,10.1733372 C19.8286125,10.1733372 17.7329092,12.1787084 17.7329092,15.1596657 L17.7329092,44.7163087 C17.7329092,47.697266 19.8286125,49.7026373 22.9360346,49.7026373 L37.136231,49.7026373 Z M36.467774,46.0712893 L23.532226,46.0712893 C22.1049798,46.0712893 21.2739251,45.2763674 21.2739251,43.9033204 L21.2739251,15.9726541 C21.2739251,14.5996071 22.1049798,13.8227515 23.532226,13.8227515 L24.7607418,13.8227515 C25.0498043,13.8227515 25.1943355,13.9672828 25.1943355,14.2563453 L25.1943355,14.7260719 C25.1943355,15.5029275 25.7182614,16.0268533 26.4951169,16.0268533 L33.5229495,16.0268533 C34.299805,16.0268533 34.8056645,15.5029275 34.8056645,14.7260719 L34.8056645,14.2563453 C34.8056645,13.9672828 34.9682621,13.8227515 35.2392582,13.8227515 L36.467774,13.8227515 C37.8950202,13.8227515 38.7260749,14.5996071 38.7260749,15.9726541 L38.7260749,43.9033204 C38.7260749,45.2763674 37.8950202,46.0712893 36.467774,46.0712893 Z M33.9023441,44.6440431 C34.4262699,44.6440431 34.8056645,44.2827149 34.8056645,43.7407227 C34.8056645,43.1806641 34.4262699,42.8193359 33.9023441,42.8193359 L26.1157223,42.8193359 C25.5917965,42.8193359 25.1943355,43.1806641 25.1943355,43.7407227 C25.1943355,44.2827149 25.5917965,44.6440431 26.1157223,44.6440431 L33.9023441,44.6440431 Z" id="􀟜" fill="#FFFFFF" fill-rule="nonzero"></path>
    </g>
</svg>