<?xml version="1.0" encoding="UTF-8"?>
<svg width="60px" height="60px" viewBox="0 0 60 60" version="1.1" xmlns="http://www.w3.org/2000/svg" xmlns:xlink="http://www.w3.org/1999/xlink">
    <title>icon_ipad</title>
    <g id="icon_ipad" stroke="none" stroke-width="1" fill="none" fill-rule="evenodd">
        <path d="M46.1274427,46.8481448 C50.0478531,46.8481448 52.0532244,44.8247072 52.0532244,40.9765623 L52.0532244,18.9897441 C52.0532244,15.1235329 50.0478531,13.1181616 46.1274427,13.1181616 L14.8725573,13.1181616 C10.9702133,13.1181616 8.9467756,15.1235329 8.9467756,18.9897441 L8.9467756,40.9765623 C8.9467756,44.8427736 10.9882797,46.8481448 14.8725573,46.8481448 L46.1274427,46.8481448 Z M45.9287122,43.3071289 L15.0893542,43.3071289 C13.4091783,43.3071289 12.4877915,42.421875 12.4877915,40.6694334 L12.4877915,19.2788067 C12.4877915,17.5263651 13.4091783,16.6591776 15.0893542,16.6591776 L45.9287122,16.6591776 C47.5908217,16.6591776 48.5122085,17.5263651 48.5122085,19.2788067 L48.5122085,40.6694334 C48.5122085,42.421875 47.5908217,43.3071289 45.9287122,43.3071289 Z M37.5097662,41.8618163 C38.0156256,41.8618163 38.3950202,41.5185546 38.3950202,40.9765623 C38.3950202,40.4345701 38.0156256,40.0913084 37.5097662,40.0913084 L23.5083002,40.0913084 C22.9843744,40.0913084 22.6230462,40.4345701 22.6230462,40.9765623 C22.6230462,41.5185546 22.9843744,41.8618163 23.5083002,41.8618163 L37.5097662,41.8618163 Z" id="􀥔" fill="#FFFFFF" fill-rule="nonzero"></path>
    </g>
</svg>