<?xml version="1.0" encoding="UTF-8"?>
<svg width="60px" height="60px" viewBox="0 0 60 60" version="1.1" xmlns="http://www.w3.org/2000/svg" xmlns:xlink="http://www.w3.org/1999/xlink">
    <title>icon_6k</title>
    <g id="icon_6k" stroke="none" stroke-width="1" fill="none" fill-rule="evenodd">
        <path d="M35.9709477,49.160645 C36.8742681,49.160645 37.6149909,48.4199223 37.6149909,47.5346683 C37.6149909,46.631348 36.8742681,45.8906252 35.9709477,45.8906252 L35.8986821,45.8906252 L35.8986821,42.6206054 L47.4069838,42.6206054 C50.2253434,42.6206054 51.9235858,40.9404295 51.9235858,38.1220699 L51.9235858,16.3520486 C51.9235858,13.533689 50.2253434,11.8535131 47.4069838,11.8535131 L12.5749498,11.8535131 C9.77465656,11.8535131 8.07641424,13.533689 8.07641424,16.3520486 L8.07641424,38.1220699 C8.07641424,40.9404295 9.77465656,42.6206054 12.5749498,42.6206054 L24.1013179,42.6206054 L24.1013179,45.8906252 L24.0290523,45.8906252 C23.1257319,45.8906252 22.3850091,46.631348 22.3850091,47.5346683 C22.3850091,48.4199223 23.1257319,49.160645 24.0290523,49.160645 L35.9709477,49.160645 Z M47.2082533,39.1699216 L12.7917467,39.1699216 C12.0148911,39.1699216 11.5451645,38.6821286 11.5451645,37.9233394 L11.5451645,16.5507791 C11.5451645,15.79199 12.0148911,15.304197 12.7917467,15.304197 L47.2082533,15.304197 C47.9851089,15.304197 48.4548355,15.79199 48.4548355,16.5507791 L48.4548355,37.9233394 C48.4548355,38.6821286 47.9851089,39.1699216 47.2082533,39.1699216 Z" id="􀢹" fill="#FFFFFF" fill-rule="nonzero"></path>
    </g>
</svg>